<svg width="110" height="31" viewBox="0 0 110 31" fill="none" xmlns="http://www.w3.org/2000/svg">
<path d="M12.32 26V11.972H18.928V7.24H0.420031V11.972H7.05603V26H12.32ZM36.8594 26V21.268H25.4634V18.916H36.4394V14.212H25.4634V11.972H36.8594V7.24H20.1994V26H36.8594ZM48.4357 26.28C54.7357 26.28 58.5157 23.284 58.5157 18.272V17.796H52.6357V18.272C52.6357 20.4 51.6277 21.24 48.5197 21.24C44.7117 21.24 43.6757 20.344 43.6757 16.62C43.6757 12.896 44.7117 12 48.5197 12C51.6277 12 52.6357 12.84 52.6357 14.968V15.444H58.5157V14.968C58.5157 9.956 54.7357 6.96 48.4357 6.96C41.9117 6.96 38.0757 10.768 38.0757 16.62C38.0757 22.472 41.9117 26.28 48.4357 26.28ZM65.1665 26V18.944H73.9025V26H79.1665V7.24H73.9025V14.212H65.1665V7.24H59.9025V26H65.1665ZM93.2798 26V20.064L101.876 7.24H95.3238L92.4958 11.692L90.8998 14.324H90.5358L88.9398 11.692L86.1118 7.24H79.5878L88.0158 20.036V26H93.2798ZM109.117 26V20.624H102.285V26H109.117Z" fill="white"/>
</svg>
